<?xml version="1.0" encoding="UTF-8" standalone="no"?>
<svg
   xmlns:dc="http://purl.org/dc/elements/1.1/"
   xmlns:cc="http://creativecommons.org/ns#"
   xmlns:rdf="http://www.w3.org/1999/02/22-rdf-syntax-ns#"
   xmlns:svg="http://www.w3.org/2000/svg"
   xmlns="http://www.w3.org/2000/svg"
   xmlns:sodipodi="http://sodipodi.sourceforge.net/DTD/sodipodi-0.dtd"
   xmlns:inkscape="http://www.inkscape.org/namespaces/inkscape"
   inkscape:version="1.0 (4035a4f, 2020-05-01)"
   sodipodi:docname="digiwells_logo_negative_4c.ai.svg"
   viewBox="0 0 840 840"
   height="840"
   width="840"
   xml:space="preserve"
   id="svg38"
   version="1.1"><metadata
     id="metadata44"><rdf:RDF><cc:Work
         rdf:about=""><dc:format>image/svg+xml</dc:format><dc:type
           rdf:resource="http://purl.org/dc/dcmitype/StillImage" /><dc:title></dc:title></cc:Work></rdf:RDF></metadata><defs
     id="defs42"><clipPath
       id="clipPath56"
       clipPathUnits="userSpaceOnUse"><path
         id="path54"
         d="M 0,627.452 H 699.852 V 0 H 0 Z" /></clipPath></defs><sodipodi:namedview
     inkscape:current-layer="g46"
     inkscape:window-maximized="0"
     inkscape:window-y="58"
     inkscape:window-x="1180"
     inkscape:cy="418.30133"
     inkscape:cx="466.56799"
     inkscape:zoom="0.72776573"
     showgrid="false"
     id="namedview40"
     inkscape:window-height="927"
     inkscape:window-width="1181"
     inkscape:pageshadow="2"
     inkscape:pageopacity="0"
     guidetolerance="10"
     gridtolerance="10"
     objecttolerance="10"
     borderopacity="1"
     bordercolor="#666666"
     pagecolor="#ffffff" /><g
     transform="matrix(1.3333333,0,0,-1.3333333,0,836.60267)"
     inkscape:label="digiwells_logo_negative_4c"
     inkscape:groupmode="layer"
     id="g46"><path
       id="path48"
       style="fill:#000035;fill-opacity:1;fill-rule:nonzero;stroke:none;stroke-width:0.953276"
       d="M -1.9483421,-2.3040409 H 631.94836 V 627.20806 H -1.9483421 Z" /><g
       transform="translate(-34.926392,-1.7236897)"
       id="g50"><g
         clip-path="url(#clipPath56)"
         id="g52"><g
           transform="translate(506.8784,497.3948)"
           id="g58"><path
             id="path60"
             style="fill:#dedff1;fill-opacity:1;fill-rule:nonzero;stroke:none"
             d="m 0,0 c 0,-2.67 -0.52,-5.17 -1.58,-7.49 -1.05,-2.32 -2.46,-4.33 -4.22,-6.01 -0.13,-0.12 -0.26,-0.24 -0.39,-0.35 -1.68,-1.53 -3.66,-2.75 -5.94,-3.66 -2.46,-0.99 -5.03,-1.48 -7.7,-1.48 -5.63,0 -10.34,1.86 -14.14,5.59 -3.79,3.73 -5.69,8.19 -5.69,13.4 0,2.53 0.49,4.96 1.47,7.28 0.99,2.32 2.39,4.32 4.22,6.01 1.83,1.69 3.94,3.06 6.33,4.12 2.39,1.05 5,1.58 7.81,1.58 2.67,0 5.24,-0.49 7.7,-1.48 2.38,-0.95 4.44,-2.24 6.16,-3.86 0.06,-0.04 0.11,-0.1 0.17,-0.15 1.76,-1.68 3.17,-3.69 4.22,-6.01 C -0.52,5.17 0,2.67 0,0 m -88.016,-85.648 c 0,3.51 -0.6,6.89 -1.79,10.13 -1.2,3.23 -2.92,6.08 -5.17,8.54 -2.25,2.46 -4.92,4.4 -8.02,5.8 -3.09,1.41 -6.61,2.11 -10.55,2.11 -3.94,0 -7.42,-0.7 -10.44,-2.11 -3.03,-1.4 -5.59,-3.3 -7.701,-5.69 -2.109,-2.4 -3.73,-5.21 -4.859,-8.44 -1.121,-3.24 -1.68,-6.69 -1.68,-10.34 0,-3.52 0.559,-6.9 1.68,-10.13 1.129,-3.24 2.75,-6.09 4.859,-8.55 2.111,-2.46 4.671,-4.43 7.701,-5.9 3.02,-1.48 6.5,-2.22 10.44,-2.22 3.94,0 7.49,0.74 10.66,2.22 3.16,1.47 5.83,3.41 8.02,5.8 2.179,2.39 3.86,5.2 5.06,8.44 1.19,3.23 1.79,6.68 1.79,10.34 m 32.92,51.9 v -157.47 c 0,-10.26 -1.48,-19.2 -4.43,-26.79 -2.95,-7.6 -7.1,-13.89 -12.45,-18.89 -5.35,-4.99 -11.85,-8.72 -19.52,-11.18 -5.96,-1.91 -12.41,-3.08 -19.35,-3.5 h -104.23 v 30.81 h 104.23 c 6.19,1.08 11.02,3.53 14.5,7.37 4.85,5.34 7.28,12.44 7.28,21.31 v 66.14 h -0.63 c -3.241,-4.22 -7.6,-7.6 -13.09,-10.13 -5.48,-2.53 -11.74,-3.8 -18.77,-3.8 -8.02,0 -15.131,1.44 -21.32,4.33 -6.19,2.88 -11.43,6.78 -15.71,11.71 -4.3,4.92 -7.57,10.65 -9.82,17.19 -2.25,6.54 -3.37,13.47 -3.37,20.79 0,7.31 1.12,14.27 3.37,20.89 2.25,6.61 5.52,12.44 9.82,17.51 4.28,5.06 9.52,9.1 15.71,12.13 6.189,3.02 13.23,4.54 21.1,4.54 6.609,0 12.94,-1.34 18.99,-4.01 6.05,-2.68 10.9,-6.83 14.56,-12.45 h 0.43 v 13.5 z m -218.303,-30.506 c 0,8.44 -1.372,15.436 -4.115,20.994 -2.742,5.555 -6.403,9.987 -10.972,13.293 -4.573,3.304 -9.778,5.661 -15.614,7.069 -5.839,1.404 -11.852,2.11 -18.04,2.11 h -17.936 v -87.354 h 17.092 c 6.468,0 12.692,0.738 18.673,2.215 5.978,1.477 11.252,3.904 15.825,7.28 4.569,3.376 8.23,7.876 10.972,13.504 2.743,5.624 4.115,12.587 4.115,20.889 m 37.558,0 c 0,-13.082 -2.427,-24.371 -7.28,-33.866 -4.853,-9.495 -11.255,-17.301 -19.201,-23.421 -7.949,-6.119 -16.916,-10.622 -26.902,-13.503 -9.989,-2.885 -20.118,-4.326 -30.384,-4.326 h -55.704 V 10.018 h 54.016 c 10.549,0 20.958,-1.233 31.228,-3.693 10.266,-2.462 19.411,-6.541 27.43,-12.238 8.017,-5.696 14.486,-13.329 19.412,-22.893 4.922,-9.568 7.385,-21.383 7.385,-35.448 m 198.71,30.705 h 34.604 v -105.078 h -34.604 z m -181.456,0 h 34.604 v -105.078 h -34.604 z M -181.451,0 c 0,-2.674 -0.527,-5.17 -1.582,-7.49 -1.055,-2.322 -2.463,-4.326 -4.22,-6.014 -1.761,-1.688 -3.871,-3.026 -6.33,-4.01 -2.463,-0.985 -5.031,-1.476 -7.702,-1.476 -5.628,0 -10.339,1.862 -14.137,5.592 -3.798,3.725 -5.697,8.192 -5.697,13.398 0,2.532 0.492,4.958 1.477,7.279 0.983,2.322 2.391,4.325 4.22,6.014 1.827,1.687 3.937,3.06 6.33,4.114 2.39,1.055 4.992,1.583 7.807,1.583 2.671,0 5.239,-0.495 7.702,-1.477 2.459,-0.986 4.569,-2.322 6.33,-4.009 1.757,-1.689 3.165,-3.692 4.22,-6.014 1.055,-2.321 1.582,-4.82 1.582,-7.49 m 191.295,-403.908 -24.47,-24.47 -45.68,45.69 c -0.35,0.35 -0.7,0.7 -1.03,1.06 -17.36,17.86 -28.03,42.22 -28.03,69.09 v 46.32 c 1.14,0.31 2.26,0.65 3.36,1 10.17,3.26 19.02,8.36 26.31,15.16 1.74,1.63 3.39,3.35 4.94,5.17 v -67.65 c 0,-17.84 7.23,-33.99 18.92,-45.68 z" /></g><g
           transform="translate(612.1309,497.3946)"
           id="g62"><path
             id="path64"
             style="fill:#008f9a;fill-opacity:1;fill-rule:nonzero;stroke:none"
             d="m 0,0 c 0,-16.84 -3.28,-32.61 -9.97,-47.24 -2.33,-5.14 -4.93,-10.05 -7.83,-14.7 l -15.04,8.68 c 2.48,4 4.73,8.22 6.73,12.64 5.75,12.58 8.57,26.14 8.57,40.62 0,14.48 -2.82,28.04 -8.57,40.62 -2,4.42 -4.25,8.64 -6.73,12.64 l 15.04,8.68 c 2.9,-4.65 5.5,-9.56 7.83,-14.7 C -3.28,32.61 0,16.84 0,0 m -35.08,0 c 0,-12.12 -2.36,-23.46 -7.17,-33.99 -1.67,-3.7 -3.55,-7.23 -5.64,-10.58 l -15.03,8.68 c 1.67,2.7 3.18,5.54 4.52,8.52 3.88,8.48 5.78,17.61 5.78,27.37 0,9.76 -1.9,18.89 -5.78,27.37 -1.34,2.98 -2.85,5.82 -4.52,8.52 l 15.03,8.68 c 2.09,-3.35 3.97,-6.88 5.64,-10.58 4.81,-10.53 7.17,-21.87 7.17,-33.99 m -35.08,0 c 0,-7.39 -1.44,-14.32 -4.38,-20.74 -1.02,-2.26 -2.17,-4.41 -3.44,-6.45 l -15.04,8.68 c 0.86,1.39 1.64,2.85 2.34,4.39 2,4.38 2.98,9.09 2.98,14.12 0,5.03 -0.98,9.75 -2.98,14.12 -0.7,1.54 -1.48,3 -2.34,4.39 l 15.04,8.68 c 1.27,-2.04 2.42,-4.19 3.44,-6.45 2.94,-6.42 4.38,-13.35 4.38,-20.74 m 65.866,-200.11 c -3.096,3.936 -7.142,7.068 -12.133,9.39 -4.995,2.321 -9.812,3.481 -14.453,3.481 -2.394,0 -4.821,-0.211 -7.281,-0.633 -2.463,-0.422 -4.677,-1.233 -6.646,-2.427 -1.972,-1.196 -3.623,-2.743 -4.958,-4.641 -1.339,-1.9 -2.005,-4.325 -2.005,-7.279 0,-2.533 0.527,-4.643 1.583,-6.331 1.055,-1.688 2.601,-3.165 4.642,-4.431 2.037,-1.266 4.463,-2.426 7.279,-3.482 2.812,-1.054 5.977,-2.145 9.495,-3.27 5.064,-1.688 10.339,-3.554 15.825,-5.591 5.487,-2.041 10.478,-4.748 14.982,-8.124 4.5,-3.376 8.228,-7.562 11.182,-12.555 2.954,-4.994 4.431,-11.218 4.431,-18.673 0,-8.582 -1.582,-16.002 -4.747,-22.26 -3.165,-6.261 -7.422,-11.431 -12.766,-15.509 -5.347,-4.081 -11.467,-7.105 -18.357,-9.073 -6.894,-1.968 -13.998,-2.953 -21.311,-2.953 -10.691,0 -21.031,1.865 -31.016,5.59 -9.991,3.726 -18.288,9.037 -24.899,15.931 l 23.632,24.054 c 3.656,-4.503 8.473,-8.265 14.454,-11.288 5.977,-3.027 11.921,-4.536 17.829,-4.536 2.67,0 5.276,0.28 7.807,0.843 2.532,0.561 4.748,1.477 6.646,2.743 1.9,1.266 3.41,2.955 4.537,5.064 1.125,2.11 1.688,4.643 1.688,7.597 0,2.811 -0.705,5.202 -2.109,7.173 -1.409,1.968 -3.413,3.762 -6.014,5.38 -2.605,1.617 -5.839,3.093 -9.706,4.432 -3.871,1.335 -8.266,2.775 -13.188,4.325 -4.784,1.546 -9.462,3.376 -14.031,5.486 -4.573,2.11 -8.651,4.817 -12.238,8.124 -3.587,3.303 -6.472,7.312 -8.652,12.027 -2.182,4.711 -3.27,10.444 -3.27,17.196 0,8.298 1.688,15.403 5.064,21.311 3.376,5.908 7.807,10.761 13.293,14.559 5.486,3.798 11.674,6.575 18.568,8.334 6.89,1.758 13.853,2.638 20.889,2.638 8.44,0 17.055,-1.55 25.848,-4.642 8.789,-3.095 16.49,-7.669 23.105,-13.714 z m -365.167,-110.564 h -35.659 l -29.54,101.069 h -0.633 l -29.54,-101.069 h -35.87 l -42.411,149.388 h 38.824 l 23.632,-99.381 h 0.633 l 26.586,99.381 h 37.558 l 26.797,-99.381 h 0.633 l 24.054,99.381 h 37.558 z m 49.131,149.196 h 104.234 l -0.001,-30.805 H -320.33 Z m 0,-149.387 h 104.234 v 30.806 H -320.33 Z m 261.795,-56.179 -24.47,-24.46 -14.39,14.38 -31.3,31.3 c -0.29,0.29 -0.57,0.58 -0.86,0.88 -8,8.44 -12.92,19.84 -12.92,32.4 v 151.258 h 34.6 v -151.258 c 0,-3.44 1.39,-6.56 3.65,-8.81 z" /></g></g></g></g></svg>
