<?xml version="1.0" encoding="UTF-8" standalone="no"?>
<svg
   xmlns:dc="http://purl.org/dc/elements/1.1/"
   xmlns:cc="http://creativecommons.org/ns#"
   xmlns:rdf="http://www.w3.org/1999/02/22-rdf-syntax-ns#"
   xmlns:svg="http://www.w3.org/2000/svg"
   xmlns="http://www.w3.org/2000/svg"
   xmlns:sodipodi="http://sodipodi.sourceforge.net/DTD/sodipodi-0.dtd"
   xmlns:inkscape="http://www.inkscape.org/namespaces/inkscape"
   inkscape:version="1.0 (4035a4f, 2020-05-01)"
   height="630"
   width="630"
   sodipodi:docname="digiwells_logo_square.svg"
   xml:space="preserve"
   viewBox="0 0 629.99998 630"
   y="0px"
   x="0px"
   id="logo_RGB"
   version="1.1"><metadata
   id="metadata23"><rdf:RDF><cc:Work
       rdf:about=""><dc:format>image/svg+xml</dc:format><dc:type
         rdf:resource="http://purl.org/dc/dcmitype/StillImage" /><dc:title></dc:title></cc:Work></rdf:RDF></metadata><defs
   id="defs21" /><sodipodi:namedview
   inkscape:current-layer="logo_RGB"
   inkscape:window-maximized="0"
   inkscape:window-y="149"
   inkscape:window-x="291"
   inkscape:cy="313.75"
   inkscape:cx="231.72766"
   inkscape:zoom="1.2222732"
   showgrid="false"
   id="namedview19"
   inkscape:window-height="1008"
   inkscape:window-width="1679"
   inkscape:pageshadow="2"
   inkscape:pageopacity="0"
   guidetolerance="10"
   gridtolerance="10"
   objecttolerance="10"
   borderopacity="1"
   bordercolor="#666666"
   pagecolor="#ffffff" />
<style
   id="style10"
   type="text/css">
	.st0{fill:#222742;}
	.st1{fill:#2E888D;}
</style>
<g
   transform="translate(-34.85,1.65)"
   id="g16">
	<path
   id="path12"
   d="m 516.7,534 -24.5,24.5 -45.7,-45.7 c -0.3,-0.4 -0.7,-0.7 -1,-1.1 -17.4,-17.9 -28,-42.2 -28,-69.1 v -46.3 c 1.1,-0.3 2.3,-0.6 3.4,-1 10.2,-3.3 19,-8.4 26.3,-15.2 1.7,-1.6 3.4,-3.3 4.9,-5.2 v 67.7 c 0,17.8 7.2,34 18.9,45.7 z M 325.4,130.1 c 0,2.7 -0.5,5.2 -1.6,7.5 -1.1,2.3 -2.5,4.3 -4.2,6 -1.8,1.7 -3.9,3 -6.3,4 -2.5,1 -5,1.5 -7.7,1.5 -5.6,0 -10.3,-1.9 -14.1,-5.6 -3.8,-3.7 -5.7,-8.2 -5.7,-13.4 0,-2.5 0.5,-5 1.5,-7.3 1,-2.3 2.4,-4.3 4.2,-6 1.8,-1.7 3.9,-3.1 6.3,-4.1 2.4,-1.1 5,-1.6 7.8,-1.6 2.7,0 5.2,0.5 7.7,1.5 2.5,1 4.6,2.3 6.3,4 1.8,1.7 3.2,3.7 4.2,6 1,2.3 1.6,4.8 1.6,7.5 z M 288.3,268.7 V 163.6 h 34.6 V 268.7 Z M 469.7,163.6 h 34.6 V 268.7 H 469.7 Z M 271,194.3 c 0,13.1 -2.4,24.4 -7.3,33.9 -4.9,9.5 -11.3,17.3 -19.2,23.4 -7.9,6.1 -16.9,10.6 -26.9,13.5 -10,2.9 -20.1,4.3 -30.4,4.3 H 131.5 V 120 h 54 c 10.5,0 21,1.2 31.2,3.7 10.3,2.5 19.4,6.5 27.4,12.2 8,5.7 14.5,13.3 19.4,22.9 5.1,9.6 7.5,21.4 7.5,35.5 z m -37.5,0 c 0,-8.4 -1.4,-15.4 -4.1,-21 -2.7,-5.6 -6.4,-10 -11,-13.3 -4.6,-3.3 -9.8,-5.7 -15.6,-7.1 -5.8,-1.4 -11.9,-2.1 -18,-2.1 h -17.9 v 87.4 H 184 c 6.5,0 12.7,-0.7 18.7,-2.2 6,-1.5 11.3,-3.9 15.8,-7.3 4.6,-3.4 8.2,-7.9 11,-13.5 2.6,-5.6 4,-12.6 4,-20.9 z m 218.3,-30.5 v 157.5 c 0,10.3 -1.5,19.2 -4.4,26.8 -2.9,7.6 -7.1,13.9 -12.4,18.9 -5.4,5 -11.9,8.7 -19.5,11.2 -6,1.9 -12.4,3.1 -19.4,3.5 H 291.8 V 350.9 H 396 c 6.2,-1.1 11,-3.5 14.5,-7.4 4.9,-5.3 7.3,-12.4 7.3,-21.3 V 256 h -0.6 c -3.2,4.2 -7.6,7.6 -13.1,10.1 -5.5,2.5 -11.7,3.8 -18.8,3.8 -8,0 -15.1,-1.4 -21.3,-4.3 -6.2,-2.9 -11.4,-6.8 -15.7,-11.7 -4.3,-4.9 -7.6,-10.6 -9.8,-17.2 -2.2,-6.6 -3.4,-13.5 -3.4,-20.8 0,-7.3 1.1,-14.3 3.4,-20.9 2.2,-6.6 5.5,-12.4 9.8,-17.5 4.3,-5.1 9.5,-9.1 15.7,-12.1 6.2,-3 13.2,-4.5 21.1,-4.5 6.6,0 12.9,1.3 19,4 6.1,2.7 10.9,6.8 14.6,12.5 h 0.4 v -13.5 h 32.7 z m -32.9,51.9 c 0,-3.5 -0.6,-6.9 -1.8,-10.1 -1.2,-3.2 -2.9,-6.1 -5.2,-8.5 -2.2,-2.5 -4.9,-4.4 -8,-5.8 -3.1,-1.4 -6.6,-2.1 -10.6,-2.1 -4,0 -7.4,0.7 -10.4,2.1 -3,1.4 -5.6,3.3 -7.7,5.7 -2.1,2.4 -3.7,5.2 -4.9,8.4 -1.1,3.2 -1.7,6.7 -1.7,10.3 0,3.5 0.6,6.9 1.7,10.1 1.1,3.2 2.8,6.1 4.9,8.6 2.1,2.5 4.7,4.4 7.7,5.9 3,1.5 6.5,2.2 10.4,2.2 3.9,0 7.5,-0.7 10.7,-2.2 3.2,-1.5 5.8,-3.4 8,-5.8 2.2,-2.4 3.9,-5.2 5.1,-8.4 1.2,-3.3 1.8,-6.7 1.8,-10.4 z m 88,-85.6 c 0,2.7 -0.5,5.2 -1.6,7.5 -1.1,2.3 -2.5,4.3 -4.2,6 -0.1,0.1 -0.3,0.2 -0.4,0.3 -1.7,1.5 -3.7,2.8 -5.9,3.7 -2.5,1 -5,1.5 -7.7,1.5 -5.6,0 -10.3,-1.9 -14.1,-5.6 -3.8,-3.7 -5.7,-8.2 -5.7,-13.4 0,-2.5 0.5,-5 1.5,-7.3 1,-2.3 2.4,-4.3 4.2,-6 1.8,-1.7 3.9,-3.1 6.3,-4.1 2.4,-1 5,-1.6 7.8,-1.6 2.7,0 5.2,0.5 7.7,1.5 2.4,1 4.4,2.2 6.2,3.9 0.1,0 0.1,0.1 0.2,0.2 1.8,1.7 3.2,3.7 4.2,6 1,2.2 1.5,4.7 1.5,7.4 z"
   class="st0" />
	<path
   id="path14"
   d="m 553.6,497.1 -24.5,24.5 -14.4,-14.4 -31.3,-31.3 c -0.3,-0.3 -0.6,-0.6 -0.9,-0.9 -8,-8.4 -12.9,-19.8 -12.9,-32.4 V 291.3 h 34.6 v 151.3 c 0,3.4 1.4,6.6 3.6,8.8 z M 291.8,440.9 H 396 V 410.1 H 291.8 Z m 0,-149.4 H 396 v 30.8 H 291.8 Z M 242.7,440.7 H 207 L 177.5,339.6 h -0.6 L 147.4,440.7 H 111.5 L 69,291.3 h 38.8 l 23.6,99.4 h 0.6 l 26.6,-99.4 h 37.6 l 26.8,99.4 h 0.6 l 24.1,-99.4 h 37.6 z M 607.8,330.2 c -3.1,-3.9 -7.1,-7.1 -12.1,-9.4 -5,-2.3 -9.8,-3.5 -14.5,-3.5 -2.4,0 -4.8,0.2 -7.3,0.6 -2.5,0.4 -4.7,1.2 -6.6,2.4 -2,1.2 -3.6,2.7 -5,4.6 -1.3,1.9 -2,4.3 -2,7.3 0,2.5 0.5,4.6 1.6,6.3 1.1,1.7 2.6,3.2 4.6,4.4 2,1.3 4.5,2.4 7.3,3.5 2.8,1.1 6,2.1 9.5,3.3 5.1,1.7 10.3,3.6 15.8,5.6 5.5,2 10.5,4.7 15,8.1 4.5,3.4 8.2,7.6 11.2,12.6 3,5 4.4,11.2 4.4,18.7 0,8.6 -1.6,16 -4.7,22.3 -3.2,6.3 -7.4,11.4 -12.8,15.5 -5.3,4.1 -11.5,7.1 -18.4,9.1 -6.9,2 -14,3 -21.3,3 -10.7,0 -21,-1.9 -31,-5.6 -10,-3.7 -18.3,-9 -24.9,-15.9 L 540.2,399 c 3.7,4.5 8.5,8.3 14.5,11.3 6,3 11.9,4.5 17.8,4.5 2.7,0 5.3,-0.3 7.8,-0.8 2.5,-0.6 4.7,-1.5 6.6,-2.7 1.9,-1.3 3.4,-3 4.5,-5.1 1.1,-2.1 1.7,-4.6 1.7,-7.6 0,-2.8 -0.7,-5.2 -2.1,-7.2 -1.4,-2 -3.4,-3.8 -6,-5.4 -2.6,-1.6 -5.8,-3.1 -9.7,-4.4 -3.9,-1.3 -8.3,-2.8 -13.2,-4.3 -4.8,-1.5 -9.5,-3.4 -14,-5.5 -4.6,-2.1 -8.7,-4.8 -12.2,-8.1 -3.6,-3.3 -6.5,-7.3 -8.7,-12 -2.2,-4.7 -3.3,-10.4 -3.3,-17.2 0,-8.3 1.7,-15.4 5.1,-21.3 3.4,-5.9 7.8,-10.8 13.3,-14.6 5.5,-3.8 11.7,-6.6 18.6,-8.3 6.9,-1.8 13.9,-2.6 20.9,-2.6 8.4,0 17.1,1.5 25.8,4.6 8.8,3.1 16.5,7.7 23.1,13.7 z M 542,130.1 c 0,7.4 -1.4,14.3 -4.4,20.7 -1,2.3 -2.2,4.4 -3.4,6.5 l -15,-8.7 c 0.9,-1.4 1.6,-2.8 2.3,-4.4 2,-4.4 3,-9.1 3,-14.1 0,-5 -1,-9.8 -3,-14.1 -0.7,-1.5 -1.5,-3 -2.3,-4.4 l 15,-8.7 c 1.3,2 2.4,4.2 3.4,6.4 2.9,6.4 4.4,13.4 4.4,20.8 z m 35.1,0 c 0,12.1 -2.4,23.5 -7.2,34 -1.7,3.7 -3.5,7.2 -5.6,10.6 l -15,-8.7 c 1.7,-2.7 3.2,-5.5 4.5,-8.5 3.9,-8.5 5.8,-17.6 5.8,-27.4 0,-9.8 -1.9,-18.9 -5.8,-27.4 -1.3,-3 -2.9,-5.8 -4.5,-8.5 l 15,-8.7 c 2.1,3.3 4,6.9 5.6,10.6 4.8,10.5 7.2,21.8 7.2,34 z m 35,0 c 0,16.8 -3.3,32.6 -10,47.2 -2.3,5.1 -4.9,10 -7.8,14.7 l -15,-8.7 c 2.5,-4 4.7,-8.2 6.7,-12.6 5.8,-12.6 8.6,-26.1 8.6,-40.6 0,-14.5 -2.8,-28 -8.6,-40.6 -2,-4.4 -4.2,-8.6 -6.7,-12.6 l 15,-8.7 c 2.9,4.6 5.5,9.6 7.8,14.7 6.8,14.5 10,30.3 10,47.2 z"
   class="st1" />
</g>
</svg>
