<?xml version="1.0" encoding="UTF-8" standalone="no"?>
<!-- Generator: Adobe Illustrator 24.3.0, SVG Export Plug-In . SVG Version: 6.00 Build 0)  -->

<svg
   xmlns:dc="http://purl.org/dc/elements/1.1/"
   xmlns:cc="http://creativecommons.org/ns#"
   xmlns:rdf="http://www.w3.org/1999/02/22-rdf-syntax-ns#"
   xmlns:svg="http://www.w3.org/2000/svg"
   xmlns="http://www.w3.org/2000/svg"
   xmlns:sodipodi="http://sodipodi.sourceforge.net/DTD/sodipodi-0.dtd"
   xmlns:inkscape="http://www.inkscape.org/namespaces/inkscape"
   version="1.1"
   id="Layer_2"
   x="0px"
   y="0px"
   viewBox="0 0 566.9 566.9"
   style="enable-background:new 0 0 566.9 566.9;"
   xml:space="preserve"
   sodipodi:docname="digiwells_icon_aligned.svg"
   inkscape:version="0.92.5 (2060ec1f9f, 2020-04-08)"><metadata
   id="metadata25"><rdf:RDF><cc:Work
       rdf:about=""><dc:format>image/svg+xml</dc:format><dc:type
         rdf:resource="http://purl.org/dc/dcmitype/StillImage" /><dc:title></dc:title></cc:Work></rdf:RDF></metadata><defs
   id="defs23">
	
	
</defs><sodipodi:namedview
   pagecolor="#ffffff"
   bordercolor="#666666"
   borderopacity="1"
   objecttolerance="10"
   gridtolerance="10"
   guidetolerance="10"
   inkscape:pageopacity="0"
   inkscape:pageshadow="2"
   inkscape:window-width="1848"
   inkscape:window-height="1136"
   id="namedview21"
   showgrid="false"
   inkscape:snap-global="true"
   inkscape:zoom="0.83259831"
   inkscape:cx="-259.57606"
   inkscape:cy="326.18813"
   inkscape:window-x="72"
   inkscape:window-y="27"
   inkscape:window-maximized="1"
   inkscape:current-layer="Layer_2" />
<style
   type="text/css"
   id="style2">
	.st0{fill:#222742;}
	.st1{fill:#2E888D;}
</style>
<g
   id="g3744"
   transform="translate(-1.9999878,1.2207031e-5)"><g
     id="g10">
		<path
   class="st0"
   d="M 451.5,468.7 410,510.2 332.4,432.6 c -0.6,-0.6 -1.2,-1.2 -1.7,-1.8 -29.5,-30.3 -47.6,-71.7 -47.6,-117.3 v -78.7 c 1.9,-0.5 3.8,-1.1 5.7,-1.7 17.3,-5.5 32.3,-14.2 44.7,-25.7 3,-2.8 5.8,-5.7 8.4,-8.8 v 114.9 c 0,30.3 12.3,57.7 32.1,77.6 z"
   id="path4"
   inkscape:connector-curvature="0"
   style="fill:#222742" />
		<path
   class="st0"
   d="M 283.6,56.7 V 109 c 0,15.1 -4.1,27.1 -12.4,36.2 -5.9,6.5 -14.1,10.7 -24.6,12.5 H 56.7 V 210 h 189.9 c 11.8,-0.7 22.7,-2.7 32.9,-5.9 13,-4.2 24.1,-10.5 33.1,-19 9.1,-8.5 16.1,-19.2 21.1,-32.1 5,-12.9 7.5,-28.1 7.5,-45.5 V 56.7 Z"
   id="path6"
   inkscape:connector-curvature="0"
   style="fill:#222742" />
		<path
   class="st1"
   d="M 514.2,406.1 472.6,447.6 448.2,423.2 395,370.1 c -0.5,-0.5 -1,-1 -1.5,-1.5 -13.6,-14.3 -21.9,-33.7 -21.9,-55 V 56.7 h 58.8 v 256.8 c 0,5.8 2.4,11.1 6.2,15 z"
   id="path8"
   inkscape:connector-curvature="0"
   style="fill:#2e888d" />
	</g><g
     transform="translate(-7.6293945e-7,-0.3)"
     id="g16">
		<rect
   x="56.700001"
   y="258.39999"
   class="st1"
   width="189.89999"
   height="52.299999"
   id="rect12"
   style="fill:#2e888d" />
		<rect
   x="56.700001"
   y="57"
   class="st1"
   width="189.89999"
   height="52.299999"
   id="rect14"
   style="fill:#2e888d" />
	</g></g>
</svg>