<svg xmlns="http://www.w3.org/2000/svg" width="600.03" height="337.291" viewBox="0 0 829 466">
  <defs>
    <style>
      .cls-1 {
        fill: #2686fa;
      }

      .cls-1, .cls-2 {
        fill-rule: evenodd;
      }

      .cls-2 {
        fill: #ff1e1e;
      }
    </style>
  </defs>
  <path id="Color_Fill_2" data-name="Color Fill 2" class="cls-1" d="M53,139c-0.577,3.652-1.639,4.32-3,7h4c5.688-3.619,35.909,5.3,40,8,2.443,1.611,4.136,4.672,6,7,19.9,24.849,32.183,74.955,22,120-4.525,20.018-2.679,41.393-17,51-3.573,2.889-36.777,8.158-45,6-3.287-.863-5.524-3.007-9-4v12c-1.766.961-1.68,1.257-4,2v-1l-1-51-2-47V215c-1.724-8.2-1.8-23.805,0-32,3.577-16.271-3.976-34.81,6-43C51.073,139.248,50.946,139.4,53,139Zm359,22c-10.418.228-19.3,3.463-28,0a10.925,10.925,0,0,0-2-3l1-3c11.38-6.452,72.006-17.748,76,2-11.284,4.436-20.772,3.121-37,3,0.255,11.074,4.672,19.847,7,29,2.439,9.591-.286,17.9,2,28,3.065,13.539,5.045,28.649,8,41,2.973,12.426,1.247,37.675,7,46v-1c5.594-6.281,6.5-16.6,11-24,8.765-14.42,20.125-29.095,28-44,2.8-5.295,1.646-15.237,7-18,12.552-7.236,11.166,15.763,13,24,5.7,25.6,6.494,56.188,12,81h2v-9c2.482-4.234-.284-12.271,1-18,1.818-8.113,2.052-16.82,5-24,4.942-12.035,13.069-22.366,18-34,5.842-13.783,3.991-27.45,8-44,2.454-10.131,6.419-20.191,8-31-5.516.908-15.725,4.759-19-1-0.961-1.418-.976-3.273-1-6,15.669-4.567,25.576-15.582,46-16,2.379,3.549,3.857,3.585,4,10a11.725,11.725,0,0,0-2,5,50.657,50.657,0,0,1-9,4c0,11.83-6.116,22.146-9,32-4.435,15.153-2.651,30.04-8,43-8.208,19.888-19.455,36.308-26,58-4.786,15.864-2.584,46.97-20,49-18.036-17.805-21.819-55.948-22-91h-2v2c-5.22,4.356-7.272,12.093-11,18-5.811,9.206-13.19,18.584-19,28-3.966,6.427-5.267,14.475-11,19-0.691.457-9.07,2.885-12,3-9.055-15.34-6-38.285-11-58-3.073-12.118-5.062-26.857-8-40q-1-16-2-32C414.855,180.469,412.236,172.114,412,161ZM57,149c-1.895,1.521-3.59,1.789-7,2v2c-2.184,3.512-.708,11.768-1,17-0.513,9.179-1,21.295-1,32,0,42.977,2.783,80.376,3,123,4.994,1.884,4.342,5.228,11,6,5.706,3.693,29.746-1.786,39-2,3.719-4.892,8.425-9.856,11-16,17.018-40.606,8.255-134.594-19-154C87.041,154.757,66.227,149.229,57,149ZM773,453c-4.314.278-9.1,3.143-12,2q-0.5-1.5-1-3c-3.062-1.6-4.29,3.2-7-1-3.744-5.638-.316-12.939-1-18h-2c-4.712-2.832-12.342.314-18-2l-4-4c-4-2.067-8.576-1.53-12-4-3.768-2.718-4.4-9.195-8-12-3.406-2.656-7.5-3.453-11-6-15.155-11.03-26.552-32.522-32-53-3.635-13.665,1.764-37.128,4-47V285c2.331-10.639,1.6-25.6,4-35,3.889-15.242,5.566-57.809,13-67,1.418-.961,3.273-0.976,6-1a15.7,15.7,0,0,1,1,5c-6.856,7.878-3.1,25.1-6,37-3.329,13.676-4.619,30.286-8,46q-0.5,17.5-1,35c-5.152,23.588-4.223,55.182,7,71,7.665,10.8,17.177,17.157,28,25,4.685,3.395,6.754,11.422,12,14h4c3.263,1.34,6.3,4.966,10,6h14q2.5,2.5,5,5c2.719-2.63,6.344-4.312,9-7,1.754,0.631.971,0.193,2,1,2.524,1.752,2.639,1.838,3,6-1.829,1.568-1.395.882-2,4h2c1.073-.752.946-0.6,3-1,1.947,3.086,2.887,3.43,3,9C775.626,441.333,773.731,448.742,773,453ZM716,183h7c1,2.893,1.059,7.674,1,12-3.129,6.57,1.35,33.5-1,44-7.971,35.6-.346,108.979,15,130,3.236,4.433,10.918,6.26,15,10,12.234,11.21,12.772,18.158,35,21,1.187-3.6,1.509-3.657,6-4,3.941,3.038,15.843-.765,25-1v2c1.378,2.145.741,11.305-1,14l-5,3c-1.357,2.345,1.016,5.457-1,7-2.319,1.774-5.539.451-7,3q-0.5,3.5-1,7h-5c-1.021-.8-0.274-0.355-2-1-3.057-6.368-6.957-4.884-7-15-4.608-1.223-6.634-4.6-10-6h-7a64.859,64.859,0,0,1-16-8c-5.513-4.027-8.464-11.948-14-16-5.293-3.874-11.419-6.559-15-12-18.209-27.668-21.921-104-13-145C718.076,213.861,713.487,195.958,716,183ZM305,216c2.076,0.372,1.924.242,3,1,4.165,4.342-.619,15.979-5,18-2.64,1.671-5.376.135-8-1-1.426-3.15-2.023-5.754-2-11a41.354,41.354,0,0,0,8-6C303.328,216.805,303.826,216.807,305,216Zm-116,5c4.978,2.154,6.23,6.5,6,14-2.67,1.441-4.221,1.994-9,2-1.664-2.2-2.836-2.026-4-5-1.756-2.561-.641-6.192,0-9C183.525,222.512,187.706,221.893,189,221Zm108,4c0.195,2.328.193,2.826,1,4a12.662,12.662,0,0,1,1-4h-2Zm461,14c4.114,0.275,4.761,1.138,8,2a14.124,14.124,0,0,1,1,4c-0.8,1.021-.355.274-1,2-8.128-.1-16.23,4.768-17,12,7.081,6.554,15.446,15.184,16,28-7.854,8.195-15.076,15.8-31,16-1.947-3.086-2.887-3.43-3-9,6.939-3.927,21.274-5.782,23-15-5.455-5.5-13.885-14.554-14-25,1.651-1.914,2.2-5.225,4-7C747.705,243.352,754.166,242.512,758,239Zm-138,6c3.474-.131,8.032-0.334,10,1,6.6,2.21,8.774,10.642,6,19-2.451,7.384-7.908,14.975-13,20-3.139,3.1-6.169,3.3-8,8h22c1.567-1.243.51-.642,2,0,2.748,1,2.2,1.44,4,3-0.631,1.754-.193.971-1,2q-0.5,1.5-1,3c-18.988,2.9-36.073,12.065-51-2-2.953-2.782-4.942-1.888-6-7,3.521-3.372,5.731-18.048,9-23C600.205,258.084,610.834,253.751,620,245ZM266,283v4c-9.524,5.429-7.378,21.142-7,36-2.534,4.254-.547,10.354-2,16-3.691,14.344-10.966,26.393-28,27-12.69-19.921,3.2-49.816,12-62,3.385-4.686,9.441-7.447,12-13l1-1c-4.128-.144-6.11-0.711-8-3-6.852-8.493,2.99-23.216,5-30,4.074-1.211,6.177-3.227,11-4l1,3c6.2,7.742-.754,22.054-2,29h1C263.568,283.171,262.882,283.605,266,283Zm36,12v3l-7-1-1-3c-5.306-6.366.976-37.457,7-39v2c1.477,2.856-7.056,26.318-3,37A14.124,14.124,0,0,0,302,295Zm323-39c-2.076.372-1.924,0.242-3,1-9.878,3.032-18.841,15.149-19,28h1C611.684,275.4,624.262,273.037,625,256Zm-440,2h3v2c2.46,3.885-.168,11.591,1,17,3.174,14.694,7.543,32.182,1,46-1.754-.631-0.971-0.193-2-1-0.752-1.073-.6-0.946-1-3,2.771-3.01,4.715-13.137,3-20C186.988,286.947,185.3,274.333,185,258Zm64,28,6-1V265c0.877-1.3.894-2.467,1-5h-1l-1,1C250.759,268.568,248.961,273.92,249,286Zm11-17v2h1v-2h-1Zm-7,30c-9.245,14.121-31.036,36.288-21,62,23.345-10.419,23.349-29.509,23-62h-2Z"/>
  <path id="Color_Fill_1" data-name="Color Fill 1" class="cls-2" d="M357,9h7c3.289,5.389,3.044,10.921,6,17l7,7q-0.5,3-1,6c-2.9.836-2.574,1.391-6,2-2.924-3.214-7.871-9.355-12-11,0.105,7.2-1.618,9.99-3,15-2.589.649-3.149,2.336-5,3l-6-1v3c0.511,0.927-.279,9.406-1,13-3.2.257-3.191,0.994-5,0-3.238-1.333-14.763-21.723-15-27,2.418-1.3,2.833-1.8,7-2,2.009,1.96,4.406,4.775,7,6q-0.5-6-1-12c5.614-4.216,6.784-8.9,17-9,1.021,0.8.274,0.355,2,1C354.93,14.534,355.924,12.5,357,9ZM559,23h4c1.479,2.556,2.4,3.146,3,7-9.793,6.864-14.277,28.459-18,41-1.279,4.308.491,6.254-1,9-1.18.8-1.681,0.773-4,1C528.7,57.911,547.191,37.846,559,23ZM347,31a15.705,15.705,0,0,0-1,5l1,1,1-1c0.877-1.295.894-2.467,1-5h-2Zm236,3a20.383,20.383,0,0,1,9,2,10.931,10.931,0,0,0,2,3c-0.631,1.754-.193.971-1,2-2.277,3.666-3.869.561-6,3-4.974,5.693-10.062,26.277-12,35h-4a18.322,18.322,0,0,1-1-6C563.609,63.131,579.473,38.908,583,34ZM726,151h7c4.494-6.586,25.889-24.287,33-29,4.713-3.124,10.247-3.782,15-7,6.237-4.223,6.653-11.269,17-12,1.3,2.418,1.8,2.833,2,7-5.473,3.443-12.58,9.632-16,15q-1,4-2,8h-4c-3.06,1.847-15.744,16.491-17,20h1c3.375,2.538,11.534,1.55,16,3,3.946,8.137,5.206,12.551,5,24a24.935,24.935,0,0,0-5,4c-51.487.119-96.757-.986-145-3a24.935,24.935,0,0,0-4-5c-0.2-6.8-1.846-10.649-1-16,5.839-2.785,7.062-8.129,14-9l3,3V139c1.889-2.927,1-10.388,1-15q-1-20.5-2-41c-1.384-3.187-5.451-3.826-7-8,5.85-.914,5.656-4,10-6v1c3.388,1.731,4.045,4.78,4,10-2.273,1-2.774.745-4,3-2.013,3.857.925,14.979,1,21,0.234,18.693-.159,32.5,0,51,9.863-.1,19.685-1.092,29,0l1-1,6-25q0.5-9,1-18c3.59-15.259,6.8-35.61,12-49,3.364-8.662,4.244-19.931,13-23,10.126-6.02,13.327,10.145,11,20-3.809,16.133-3.533,25.861,0,42q0.5,11.5,1,23C723.948,132.216,726.127,140.071,726,151ZM616,41h5c1.285,1.834,1.968,1.712,3,4,0.752,1.073.6,0.946,1,3-7.363,5.044-15.591,15.177-20,23-3.2,5.673,1.656,10.257-6,12-2.23-3.335-3.688-3.195-4-9C589.842,64.476,611.16,45.938,616,41Zm97,111c0.2-13.647-3.412-23.943-6-35-1.935-8.267-.589-17.482-2-24h-1c-0.679,5.917-3.585,11.057-5,16q-1.5,12-3,24c-1.738,6.445-4.418,13.241-6,20h14C705.838,151.762,709.7,151.911,713,152ZM223,136c23.686,0.067,44.133,16.123,44,40-2.091,1.121-1.832,1.434-5,2-9.284-17.621-24.072-32.663-48-30q-0.5-1.5-1-3c-0.8-1.18-.773-1.681-1-4a24.935,24.935,0,0,0,5-4C219.72,137.007,221.6,136.961,223,136Zm98,6c16.4-.41,41.921,4.961,46,17,2.246,3.55-.637,7.359-5,8-7.412-6.853-23.42-10.985-34-14-5.281-1.5-13.757.706-18-2-0.8-1.18-.773-1.681-1-4,1.8-1.565,1.281-1.966,4-3C314.628,142.994,319.386,143.041,321,142ZM212,160l9,1c7.469,10.788,18.071,14.5,17,32-2.589,1.8-2.26,3.05-6,4-4.4-8.177-6.638-15.977-13-22-4.063-3.847-8.5-.49-11-6-0.877-1.295-.894-2.467-1-5A24.935,24.935,0,0,0,212,160Zm93,8c22.176-.689,44.942,1.692,45,23-0.8,1.021-.355.274-1,2h-4c-6.671-13.669-32.6-13.831-48-16v-4C299.3,171.616,302.829,169.815,305,168ZM196,191c11.659,0.2,20.228,8.6,20,21-2.281,1.225-2.251,1.638-6,2l-9-11c-5.88-3.737-9.317,1.593-10-8A24.935,24.935,0,0,0,196,191Zm104,2h12c2.577,2.657,20.227,16.261,5,18-2.436-2.449-6.56-6.922-10-8-6.964-2.183-10.746,5.061-12-5Q297.5,195.5,300,193Z"/>
</svg>
