<svg xmlns="http://www.w3.org/2000/svg" width="193.978" height="193.978" viewBox="0 0 268 268">
  <defs>
    <style>
      .cls-1 {
        font-size: 72px;
      }

      .cls-1, .cls-4, .cls-5 {
        fill: #2686fa;
        font-family: "Chalkboard SE";
      }

      .cls-1, .cls-4 {
        font-weight: 700;
      }

      .cls-2 {
        font-size: 120px;
      }

      .cls-3 {
        fill: #ff1e1e;
        fill-rule: evenodd;
      }

      .cls-4 {
        font-size: 100px;
      }

      .cls-5 {
        font-size: 60px;
        font-weight: 300;
      }
    </style>
  </defs>
  <text id="ells_" data-name="ells " class="cls-1" x="94.289" y="242.016">e<tspan class="cls-2">ll</tspan>s<tspan> </tspan></text>
  <path id="Color_Fill_1" data-name="Color Fill 1" class="cls-3" d="M-175,9h7c3.289,5.389,3.044,10.921,6,17l7,7q-0.5,3-1,6c-2.9.836-2.574,1.391-6,2-2.924-3.214-7.871-9.355-12-11,0.1,7.2-1.618,9.99-3,15-2.589.649-3.149,2.336-5,3l-6-1v3c0.511,0.927-.279,9.406-1,13-3.2.257-3.191,0.994-5,0-3.238-1.333-14.763-21.723-15-27,2.418-1.3,2.833-1.8,7-2,2.009,1.96,4.406,4.775,7,6q-0.5-6-1-12c5.614-4.216,6.784-8.9,17-9,1.021,0.8.274,0.355,2,1C-177.07,14.534-176.076,12.5-175,9ZM27,23h4c1.479,2.556,2.4,3.146,3,7-9.793,6.864-14.277,28.459-18,41-1.279,4.308.491,6.254-1,9-1.18.8-1.681,0.773-4,1C-3.3,57.911,15.191,37.846,27,23Zm-212,8a15.705,15.705,0,0,0-1,5l1,1,1-1c0.877-1.295.894-2.467,1-5h-2ZM51,34a20.382,20.382,0,0,1,9,2,10.949,10.949,0,0,0,2,3c-0.631,1.754-.193.971-1,2-2.277,3.666-3.869.561-6,3-4.974,5.693-10.062,26.277-12,35H39a18.311,18.311,0,0,1-1-6C31.609,63.131,47.473,38.908,51,34ZM194,151h7c4.494-6.586,25.889-24.287,33-29,4.713-3.124,10.247-3.782,15-7,6.237-4.223,6.653-11.269,17-12,1.3,2.418,1.8,2.833,2,7-5.473,3.443-12.58,9.632-16,15q-1,4-2,8h-4c-3.06,1.847-15.744,16.49-17,20h1c3.375,2.538,11.534,1.55,16,3,3.946,8.137,5.206,12.551,5,24a24.935,24.935,0,0,0-5,4c-51.487.119-96.757-.986-145-3a24.956,24.956,0,0,0-4-5c-0.2-6.8-1.846-10.649-1-16,5.839-2.785,7.062-8.129,14-9l3,3V139c1.889-2.927,1-10.388,1-15q-1-20.5-2-41c-1.384-3.187-5.451-3.826-7-8,5.85-.914,5.656-4,10-6v1c3.388,1.731,4.045,4.78,4,10-2.273,1-2.774.745-4,3-2.013,3.857.925,14.979,1,21,0.234,18.693-.159,32.5,0,51,9.863-.1,19.685-1.092,29,0l1-1q3-12.5,6-25,0.5-9,1-18c3.59-15.259,6.8-35.61,12-49,3.364-8.662,4.244-19.931,13-23,10.126-6.02,13.327,10.145,11,20-3.809,16.133-3.533,25.861,0,42q0.5,11.5,1,23C191.948,132.216,194.127,140.071,194,151ZM84,41h5c1.285,1.834,1.968,1.712,3,4,0.752,1.073.6,0.946,1,3-7.363,5.044-15.591,15.177-20,23-3.2,5.673,1.656,10.257-6,12-2.23-3.335-3.688-3.195-4-9C57.842,64.476,79.16,45.938,84,41Zm97,111c0.195-13.647-3.412-23.943-6-35-1.935-8.267-.589-17.482-2-24h-1c-0.679,5.917-3.585,11.057-5,16q-1.5,12-3,24c-1.738,6.445-4.418,13.241-6,20h14C173.838,151.762,177.7,151.911,181,152Zm-490-16c23.686,0.067,44.133,16.123,44,40-2.091,1.121-1.832,1.434-5,2-9.284-17.621-24.072-32.663-48-30l-1-3c-0.8-1.18-.773-1.681-1-4a24.935,24.935,0,0,0,5-4C-312.28,137.007-310.4,136.961-309,136Zm98,6c16.4-.41,41.921,4.961,46,17,2.246,3.55-.637,7.359-5,8-7.412-6.853-23.42-10.985-34-14-5.281-1.5-13.757.706-18-2-0.8-1.18-.773-1.681-1-4,1.8-1.565,1.281-1.966,4-3C-217.372,142.994-212.614,143.041-211,142Zm-109,18,9,1c7.469,10.788,18.071,14.5,17,32-2.589,1.8-2.26,3.05-6,4-4.4-8.177-6.638-15.977-13-22-4.063-3.847-8.5-.49-11-6-0.877-1.295-.894-2.467-1-5A24.935,24.935,0,0,0-320,160Zm93,8c22.176-.689,44.942,1.692,45,23-0.8,1.021-.355.274-1,2h-4c-6.671-13.669-32.6-13.831-48-16v-4C-232.7,171.616-229.171,169.815-227,168Zm-109,23c11.659,0.2,20.228,8.6,20,21-2.281,1.225-2.251,1.638-6,2l-9-11c-5.88-3.737-9.317,1.593-10-8A24.935,24.935,0,0,0-336,191Zm104,2h12c2.577,2.657,20.227,16.261,5,18-2.436-2.449-6.56-6.922-10-8-6.964-2.183-10.746,5.061-12-5Z"/>
  <text id="W_" data-name="W " class="cls-4" x="-0.383" y="236.797">W </text>
  <text id="digi" class="cls-5" x="4.617" y="150.797">digi</text>
</svg>
