<?xml version="1.0" standalone="no"?>
<!DOCTYPE svg PUBLIC "-//W3C//DTD SVG 20010904//EN"
 "http://www.w3.org/TR/2001/REC-SVG-20010904/DTD/svg10.dtd">
<svg version="1.0" xmlns="http://www.w3.org/2000/svg"
 width="700.000000pt" height="700.000000pt" viewBox="0 0 700.000000 700.000000"
 preserveAspectRatio="xMidYMid meet">
<metadata>
Created by potrace 1.11, written by Peter Selinger 2001-2013
</metadata>
<g transform="translate(0.000000,700.000000) scale(0.100000,-0.100000)"
fill="#000000" stroke="none">
<path d="M675 5978 l0 -323 1170 0 1170 0 3 323 2 322 -1172 0 -1173 0 0 -322z"/>
<path d="M3479 6278 c0 -13 -2 -185 -3 -383 -3 -397 -7 -435 -69 -565 -40 -84
-141 -187 -219 -223 -119 -56 -69 -54 -1336 -53 -644 1 -1173 -1 -1173 -4 -1
-3 -2 -148 -3 -322 -1 -312 -1 -318 19 -319 11 0 538 -1 1171 -1 1001 -1 1301
3 1324 17 3 1 25 6 50 9 25 3 70 13 100 22 30 8 62 17 71 19 36 8 172 66 226
96 248 137 432 389 507 694 14 57 18 86 36 220 4 33 8 230 9 438 l2 377 -356
0 -355 0 -1 -22z"/>
<path d="M4566 4653 c1 -907 4 -1661 8 -1678 23 -104 49 -190 76 -250 69 -155
113 -205 644 -735 279 -278 510 -506 514 -508 7 -2 396 380 491 481 l23 26
-491 492 c-465 464 -524 530 -535 591 -3 13 -5 744 -5 1626 l-1 1602 -363 0
-363 0 2 -1647z"/>
<path d="M4150 4494 c-150 -154 -358 -285 -570 -358 l-105 -36 -2 -547 c-1
-677 9 -782 103 -1073 76 -232 209 -474 366 -668 82 -101 1084 -1105 1098
-1100 6 2 123 115 260 253 l250 249 -504 506 c-277 278 -521 525 -542 550
-162 196 -274 464 -300 722 -4 35 -7 397 -7 806 0 408 -1 742 -2 742 0 0 -21
-21 -45 -46z"/>
<path d="M705 3812 l-30 -3 0 -319 0 -320 25 -1 c33 0 1755 -1 2073 0 l247 1
0 320 c0 298 -1 320 -17 321 -70 2 -2274 3 -2298 1z"/>
</g>
</svg>
