<?xml version="1.0" standalone="no"?>
<!DOCTYPE svg PUBLIC "-//W3C//DTD SVG 20010904//EN"
 "http://www.w3.org/TR/2001/REC-SVG-20010904/DTD/svg10.dtd">
<svg version="1.0" xmlns="http://www.w3.org/2000/svg"
 width="700.000000pt" height="700.000000pt" viewBox="0 0 700.000000 700.000000"
 preserveAspectRatio="xMidYMid meet">
<metadata>
Created by potrace 1.11, written by Peter Selinger 2001-2013
</metadata>
<g transform="translate(0.000000,700.000000) scale(0.100000,-0.100000)"
fill="#000000" stroke="none">
<path d="M600 6269 c-280 -353 -393 -559 -435 -794 -15 -86 -13 -233 4 -305
25 -108 98 -274 125 -283 22 -7 94 14 102 31 4 9 8 56 10 103 2 90 10 123 99
434 34 117 94 302 110 340 7 17 26 59 41 95 49 113 106 203 171 269 l63 65
-14 47 c-8 25 -26 65 -40 88 -25 40 -28 41 -79 41 l-52 0 -105 -131z"/>
<path d="M1277 6029 c-30 -46 -67 -104 -81 -129 -39 -67 -151 -290 -165 -330
-7 -19 -17 -44 -21 -55 -59 -142 -73 -344 -28 -401 5 -7 10 -32 12 -56 2 -24
9 -62 15 -83 10 -40 11 -40 58 -39 30 0 49 5 55 15 4 8 30 104 58 214 85 334
180 591 252 678 16 20 35 30 63 33 55 7 76 19 103 60 l23 35 -31 48 c-25 40
-39 51 -83 65 -28 10 -80 20 -114 23 l-62 5 -54 -83z"/>
<path d="M4725 6011 c-52 -13 -142 -59 -179 -92 -58 -51 -111 -151 -161 -309
-25 -80 -59 -181 -75 -225 -55 -152 -143 -470 -164 -588 -3 -15 -7 -35 -10
-45 -3 -9 -7 -28 -10 -42 -9 -54 -37 -184 -40 -189 -2 -3 -7 -22 -10 -41 -3
-19 -12 -69 -21 -110 -9 -41 -18 -84 -21 -95 -2 -11 -6 -32 -10 -47 -3 -15 -5
-30 -5 -33 0 -2 -5 -19 -10 -37 -11 -39 -16 -93 -24 -248 -11 -231 -17 -286
-51 -429 -19 -80 -37 -157 -40 -171 -3 -14 -12 -52 -21 -85 -8 -33 -17 -70
-19 -82 -2 -12 -9 -35 -15 -50 -6 -16 -10 -30 -10 -33 1 -3 -2 -21 -5 -40 -11
-60 -24 -68 -112 -62 -104 7 -280 6 -499 -1 l-183 -6 -2 697 c0 383 -2 708 -4
722 -6 58 -15 126 -19 140 -8 30 -19 166 -18 224 2 83 25 129 79 158 l44 23
-4 55 c-6 90 -22 134 -65 173 -22 20 -37 38 -33 41 3 3 -2 6 -11 6 -9 0 -48
-27 -85 -59 -44 -38 -88 -66 -120 -76 l-50 -17 19 -33 c11 -18 41 -50 67 -71
94 -75 99 -84 102 -189 1 -44 3 -102 5 -130 3 -48 12 -238 20 -395 2 -41 7
-136 10 -210 4 -74 8 -169 10 -210 7 -116 6 -332 0 -364 -3 -16 -10 -37 -15
-47 -6 -10 -10 -103 -10 -208 0 -105 -3 -191 -7 -191 -5 0 -23 15 -41 34 -31
32 -35 34 -70 24 -55 -14 -110 -50 -175 -113 -32 -30 -79 -70 -105 -88 -26
-17 -47 -38 -48 -44 -1 -7 -2 -29 -2 -48 l-2 -35 -88 0 -88 0 -27 -107 c-25
-104 -171 -719 -207 -873 -29 -127 -79 -333 -88 -365 -8 -26 -10 -27 -15 -10
-5 16 -93 388 -102 429 -1 6 -5 22 -8 36 -4 14 -27 113 -52 220 -25 107 -54
231 -65 275 -22 94 -63 268 -80 343 l-12 52 -237 0 -237 0 -27 -112 c-14 -62
-65 -277 -112 -478 -47 -201 -99 -419 -115 -485 -16 -66 -31 -131 -33 -145 -3
-14 -10 -45 -17 -70 -7 -25 -13 -50 -14 -57 -5 -32 -14 -16 -31 55 -10 42 -20
86 -22 97 -2 11 -19 83 -38 160 -19 77 -46 190 -60 250 -14 61 -42 175 -61
255 -20 80 -38 156 -40 170 -3 14 -23 100 -46 192 l-40 168 -234 0 c-129 0
-234 -2 -234 -5 0 -3 16 -70 35 -149 19 -79 36 -154 39 -167 2 -13 23 -100 45
-194 23 -93 55 -226 71 -295 144 -603 185 -776 216 -910 19 -85 39 -162 43
-170 7 -12 51 -15 286 -15 l277 0 9 23 c5 12 11 33 13 45 5 27 189 810 255
1087 27 113 53 222 57 244 4 25 9 34 14 25 6 -11 57 -215 75 -299 2 -8 31
-130 64 -270 34 -140 68 -282 76 -315 27 -114 105 -440 117 -487 7 -27 14 -49
17 -49 3 -1 131 -2 284 -3 l278 -1 5 25 c3 14 11 43 16 65 6 22 12 48 14 58 2
10 5 26 8 35 3 9 7 28 10 42 2 14 18 81 35 150 28 115 129 546 136 580 2 8 20
85 40 170 20 85 46 195 58 243 l21 89 150 -7 c296 -12 343 -14 536 -21 319
-10 359 -11 498 -15 l132 -3 0 -773 0 -773 43 0 c53 -1 338 -1 435 0 l72 0 0
766 0 765 254 -4 c139 -2 258 -7 263 -10 6 -4 10 -278 10 -757 0 -413 3 -753
5 -756 4 -4 268 -6 488 -4 l56 0 -1 748 c0 411 1 752 2 757 2 7 140 10 399 9
l395 -1 27 24 c15 13 46 38 69 55 l41 30 -3 102 c-5 128 -11 183 -31 266 -17
71 -79 227 -99 248 -12 13 -84 26 -215 37 -87 7 -154 21 -184 37 -11 7 -27 11
-34 10 -36 -8 64 130 233 322 43 50 105 116 137 146 54 52 61 56 108 57 28 0
54 3 57 6 3 4 17 50 30 104 15 59 36 113 54 139 58 85 264 274 359 331 30 17
30 19 24 73 -3 30 -15 72 -25 92 -18 36 -21 38 -59 33 -112 -14 -160 -48 -318
-222 -81 -89 -126 -117 -282 -178 -117 -46 -177 -76 -243 -123 -50 -34 -136
-101 -147 -112 -3 -3 -25 -21 -50 -40 -43 -33 -196 -160 -261 -217 -122 -106
-283 -263 -331 -321 l-27 -33 -92 3 -92 3 -2 80 c-5 158 -21 269 -75 505 -21
93 -30 163 -34 270 -15 377 -22 485 -31 500 -2 4 -7 29 -11 56 -3 27 -8 52
-10 56 -3 4 -7 26 -10 50 -2 24 -7 54 -10 66 -17 80 -23 383 -10 467 4 22 9
60 12 85 3 25 19 110 36 190 47 227 41 377 -20 511 -22 47 -82 109 -107 109
-7 0 -19 2 -27 4 -7 2 -26 1 -43 -3z m-202 -1463 c4 -13 9 -86 12 -163 15
-373 12 -345 79 -615 77 -302 106 -472 111 -647 l3 -92 -89 -3 c-79 -3 -89 -1
-89 15 0 16 -16 17 -205 17 -113 0 -205 1 -205 3 0 2 6 23 14 48 63 191 126
399 130 424 12 78 16 113 21 155 2 25 6 61 9 80 3 19 8 58 11 85 11 96 16 140
20 165 2 14 7 48 10 75 8 64 9 66 65 220 27 72 54 158 60 193 13 63 33 82 43
40z"/>
<path d="M2067 5804 c-199 -196 -307 -326 -380 -454 -50 -89 -73 -188 -55
-244 5 -17 12 -47 14 -66 8 -62 26 -104 66 -156 38 -51 39 -52 74 -41 53 16
84 59 85 115 2 130 25 186 135 342 116 163 241 300 371 408 46 38 52 47 46 70
-8 32 -27 64 -68 115 -29 36 -32 37 -95 37 l-65 0 -128 -126z"/>
<path d="M921 4038 c0 -117 0 -235 0 -263 l-1 -50 -20 40 c-31 63 -73 108
-131 140 -46 25 -65 30 -124 29 -204 -1 -343 -182 -343 -449 -1 -146 41 -262
124 -347 58 -60 122 -90 205 -96 58 -4 73 -1 120 22 68 34 103 67 140 131 l29
50 1 -55 c2 -129 1 -125 37 -128 l32 -3 0 595 0 596 -35 0 -34 0 0 -212z
m-174 -187 c127 -66 176 -179 169 -391 -2 -90 -8 -128 -26 -174 -55 -142 -213
-219 -335 -162 -124 57 -186 190 -179 387 4 124 27 204 75 263 80 96 200 127
296 77z"/>
<path d="M1292 4203 c3 -47 4 -47 37 -48 33 0 34 1 34 38 -1 20 -2 42 -2 47
-1 6 -17 10 -37 10 l-35 0 3 -47z"/>
<path d="M2666 4208 c1 -24 3 -46 3 -49 1 -5 31 -5 62 0 4 1 6 21 6 46 -2 45
-2 45 -38 45 l-35 0 2 -42z"/>
<path d="M1937 3930 c-125 -32 -205 -121 -243 -272 -19 -75 -21 -220 -4 -303
13 -61 55 -154 87 -190 86 -98 253 -131 366 -73 48 24 110 86 129 128 7 16 16
30 20 30 8 0 3 -201 -8 -255 -22 -118 -82 -172 -214 -193 -96 -15 -181 -5
-271 32 l-59 24 0 -38 c0 -37 2 -39 48 -54 87 -29 228 -38 314 -20 149 30 228
112 254 265 4 24 8 238 8 474 l1 430 -32 3 c-37 4 -35 9 -35 -100 0 -38 -2
-68 -4 -68 -2 0 -14 19 -28 43 -52 89 -130 137 -229 143 -34 2 -79 -1 -100 -6z
m203 -83 c92 -47 147 -157 154 -313 12 -251 -89 -404 -267 -405 -187 -2 -287
145 -274 397 6 117 11 145 38 200 63 133 219 186 349 121z"/>
<path d="M1290 3490 l0 -430 35 0 c26 0 35 4 35 18 1 25 1 804 1 825 -1 13
-10 17 -36 17 l-34 0 -1 -430z"/>
<path d="M2668 3913 c-2 -4 -4 -197 -3 -428 l0 -420 36 -3 35 -3 -1 428 0 428
-32 3 c-17 2 -33 -1 -35 -5z"/>
<path d="M2985 1723 c-220 -39 -371 -172 -425 -374 -15 -57 -19 -199 -8 -259
5 -25 11 -58 14 -75 12 -70 83 -181 150 -235 67 -54 157 -95 254 -116 55 -11
250 -11 331 1 85 13 219 45 271 66 l27 11 0 124 c0 68 -2 124 -5 124 -2 0 -27
-11 -54 -25 -56 -28 -176 -70 -235 -81 -80 -15 -227 -10 -277 9 -65 25 -115
80 -134 145 -9 30 -14 56 -11 58 3 3 175 6 383 7 l379 2 -1 100 c-2 167 -46
281 -148 381 -72 71 -160 117 -254 134 -57 10 -207 12 -257 3z m234 -239 c47
-28 101 -129 88 -167 -2 -8 -63 -12 -214 -12 l-210 0 9 38 c12 53 51 111 92
136 66 41 170 43 235 5z"/>
<path d="M6271 1718 c-76 -12 -171 -59 -210 -103 -48 -55 -64 -99 -67 -193 -4
-104 19 -174 76 -226 71 -64 137 -87 338 -116 141 -21 156 -26 186 -59 14 -15
17 -30 13 -57 -11 -68 -74 -94 -219 -90 -109 4 -238 30 -321 65 -27 12 -52 19
-56 17 -5 -3 -7 -213 -2 -237 1 -5 84 -26 181 -44 143 -28 358 -26 482 4 126
30 225 124 242 230 21 124 -5 232 -71 292 -49 46 -146 85 -258 103 -42 7 -99
15 -142 21 -114 16 -163 45 -163 95 0 107 238 124 494 34 38 -13 72 -24 75
-24 5 0 6 212 2 241 -1 6 -107 29 -221 48 -68 12 -286 11 -359 -1z"/>
</g>
</svg>
