<?xml version="1.0" standalone="no"?>
<!DOCTYPE svg PUBLIC "-//W3C//DTD SVG 20010904//EN"
 "http://www.w3.org/TR/2001/REC-SVG-20010904/DTD/svg10.dtd">
<svg version="1.0" xmlns="http://www.w3.org/2000/svg"
 width="700.000000pt" height="700.000000pt" viewBox="0 0 700.000000 700.000000"
 preserveAspectRatio="xMidYMid meet">
<metadata>
Created by potrace 1.11, written by Peter Selinger 2001-2013
</metadata>
<g transform="translate(0.000000,700.000000) scale(0.100000,-0.100000)"
fill="#000000" stroke="none">
<path d="M6128 6174 l-77 -46 38 -71 c83 -156 129 -341 129 -519 -1 -184 -34
-326 -116 -493 -56 -113 -61 -98 50 -159 l67 -37 23 43 c125 238 168 401 170
648 1 165 -25 308 -83 456 -43 107 -99 216 -115 221 -5 1 -44 -18 -86 -43z"/>
<path d="M5803 5987 c-40 -24 -75 -45 -78 -48 -3 -4 8 -33 24 -65 107 -218
107 -464 -1 -678 -28 -56 -29 -60 -12 -70 10 -6 48 -28 85 -48 l66 -38 46 98
c63 134 85 225 91 376 3 79 -15 218 -39 296 -19 61 -94 220 -104 220 -3 -1
-38 -20 -78 -43z"/>
<path d="M5468 5793 c-74 -43 -96 -71 -68 -88 46 -28 46 -291 -1 -339 -22 -23
-6 -44 66 -85 89 -51 92 -50 129 47 59 156 52 322 -20 464 -13 26 -25 48 -27
47 -1 -1 -37 -21 -79 -46z"/>
<path d="M2931 5734 c-87 -37 -141 -112 -141 -197 0 -60 18 -103 61 -145 45
-44 93 -64 154 -64 133 0 240 113 221 235 -12 73 -61 137 -126 165 -46 20
-129 23 -169 6z"/>
<path d="M4957 5735 c-145 -50 -198 -223 -102 -333 51 -59 149 -90 224 -70
148 40 214 214 123 327 -58 73 -162 105 -245 76z"/>
<path d="M1078 5648 c0 -1 -2 -376 -3 -831 l-2 -829 406 5 c395 4 408 4 501
29 374 99 596 341 638 693 31 270 -47 523 -213 689 -88 88 -267 182 -385 202
-14 3 -32 7 -40 10 -8 3 -31 7 -50 10 -19 2 -46 7 -60 11 -26 6 -789 17 -792
11z m717 -352 c80 -13 108 -22 172 -52 164 -78 243 -223 238 -439 -3 -106 -16
-159 -58 -238 -30 -57 -101 -131 -148 -154 -118 -58 -200 -75 -381 -77 l-148
-3 -1 26 c0 37 -1 868 0 912 l1 37 153 -4 c83 -2 161 -6 172 -8z"/>
<path d="M3835 5192 c-48 -4 -146 -32 -190 -54 -192 -98 -308 -309 -307 -558
1 -221 91 -401 252 -509 94 -63 185 -88 310 -85 134 3 232 38 314 114 l41 38
-1 -401 c0 -287 -4 -415 -13 -446 -25 -87 -94 -167 -168 -192 -30 -11 -163
-14 -623 -14 -322 0 -587 -3 -590 -7 -3 -3 -5 -80 -5 -170 l0 -163 610 0 c336
0 628 3 650 7 204 37 345 130 429 281 32 57 64 144 71 192 2 11 6 40 10 65 5
36 9 1078 6 1743 l-1 127 -180 0 -180 0 0 -75 0 -74 -45 48 c-89 95 -240 147
-390 133z m276 -343 c119 -60 180 -208 144 -347 -36 -140 -143 -218 -288 -211
-62 4 -81 9 -124 37 -171 110 -180 382 -16 502 22 17 58 34 79 39 58 15 157 5
205 -20z"/>
<path d="M2827 5160 c-9 -4 -12 -136 -11 -575 1 -313 2 -574 3 -580 1 -10 366
-14 376 -4 7 8 7 1150 0 1158 -8 7 -351 8 -368 1z"/>
<path d="M4840 5162 c-16 -6 -14 -1162 3 -1163 74 -7 360 -2 366 6 6 8 8 1135
2 1155 -1 5 -355 7 -371 2z"/>
<path d="M5965 3779 c-215 -27 -390 -129 -469 -273 -42 -75 -55 -124 -60 -216
-6 -144 32 -247 125 -340 69 -69 152 -111 350 -177 165 -56 226 -88 265 -138
23 -31 26 -42 22 -95 -5 -74 -27 -106 -93 -140 -66 -32 -182 -33 -270 -2 -67
25 -160 84 -188 119 -10 13 -24 23 -30 23 -12 0 -257 -248 -257 -260 0 -11 64
-66 111 -96 137 -88 308 -137 484 -138 128 -1 175 5 268 34 176 55 295 163
357 325 19 51 23 80 24 185 0 118 -1 128 -29 185 -39 80 -142 183 -226 224
-60 29 -251 100 -329 123 -54 16 -122 53 -149 82 -36 39 -41 119 -9 165 81
121 341 109 471 -20 16 -16 32 -29 36 -29 4 0 18 12 31 28 13 15 69 74 123
131 l99 104 -29 24 c-152 127 -415 199 -628 172z"/>
<path d="M386 3740 c-3 -5 17 -77 120 -440 20 -69 46 -163 59 -210 24 -88 87
-308 105 -370 5 -19 46 -163 91 -320 44 -157 83 -291 88 -299 12 -23 399 -23
406 -1 19 63 159 541 165 565 4 17 34 118 65 225 32 107 65 221 73 253 9 31
19 57 22 57 4 0 19 -44 35 -97 15 -54 33 -116 41 -138 12 -35 112 -377 134
-460 29 -104 111 -383 118 -400 9 -19 19 -20 200 -20 111 0 195 5 200 10 5 6
16 37 26 70 9 33 100 353 202 710 102 358 187 658 189 668 2 10 15 55 29 101
15 46 26 88 26 93 0 5 -93 8 -207 8 l-207 0 -23 -90 c-12 -49 -25 -99 -27
-110 -2 -11 -38 -162 -80 -335 -42 -173 -91 -373 -108 -443 -17 -70 -33 -126
-35 -123 -4 4 -26 84 -94 336 -11 41 -43 158 -70 260 -28 102 -61 228 -75 280
-14 52 -34 124 -44 160 l-20 66 -208 0 -209 -1 -17 -70 c-10 -38 -26 -99 -36
-135 -10 -36 -66 -245 -125 -465 -58 -220 -109 -409 -114 -420 -7 -17 -9 -15
-16 15 -6 33 -69 295 -101 425 -8 33 -16 69 -18 80 -3 11 -20 87 -40 168 -20
82 -38 158 -41 170 -8 41 -35 152 -46 192 l-10 40 -210 1 c-116 0 -212 -3
-213 -6z"/>
<path d="M2856 3740 c-1 -3 -2 -79 -2 -170 l1 -165 578 -3 c545 -2 577 -1 577
15 1 10 2 87 3 171 l2 152 -25 1 c-97 4 -1132 3 -1134 -1z"/>
<path d="M4834 3741 c-2 -3 -4 -394 -4 -870 1 -917 1 -917 48 -1025 33 -73 66
-111 350 -395 l263 -265 137 137 137 137 -263 263 c-145 144 -269 271 -275
282 -8 15 -11 253 -12 880 l0 860 -188 0 c-104 0 -190 -2 -193 -4z"/>
<path d="M4609 2784 c-67 -72 -200 -154 -307 -189 l-53 -17 2 -301 c2 -378 16
-479 92 -652 76 -172 127 -236 460 -570 l278 -279 136 137 137 136 -277 278
c-152 153 -285 289 -295 303 -38 52 -79 127 -100 185 -43 118 -47 169 -47 593
0 221 0 402 -1 402 0 0 -11 -12 -25 -26z"/>
<path d="M2861 2420 c-4 -3 -7 -79 -6 -170 l0 -165 578 -1 c412 -1 577 2 578
10 0 15 0 297 0 316 -1 13 -69 15 -572 15 -314 0 -574 -2 -578 -5z"/>
</g>
</svg>
